PathFileType	4	(X/Y/Z)	C:/Users/opensim2020/Desktop/walking_exp_matlab/subject06_walking19_straight_04.trc	
DataRate	CameraRate	NumFrames	NumMarkers	Units	OrigDataRate	OrigDataStartFrame	OrigNumFrames	
100.00	100.00	5	49	mm	100.00	4799	340	
Frame#	Time	LFHD			RFHD			LBHD			RBHD			C7			T10			CLAV			STRN			RBAK			LSHO			LUPA			LELB			LFRM			LWRA			LWRB			LFIN			RSHO			RUPA			RELB			RFRM			RWRA			RWRB			RFIN			LASI			RASI			LPSI			RPSI			LTHI			LKNE			LTIB			LANK			LHEE			LTOE			RTHI			RKNE			RTIB			RANK			RHEE			RTOE			*39			*40			*41			*42			*43			*44			*45			*46			*47			*48			
		X1	Y1	Z1	X2	Y2	Z2	X3	Y3	Z3	X4	Y4	Z4	X5	Y5	Z5	X6	Y6	Z6	X7	Y7	Z7	X8	Y8	Z8	X9	Y9	Z9	X10	Y10	Z10	X11	Y11	Z11	X12	Y12	Z12	X13	Y13	Z13	X14	Y14	Z14	X15	Y15	Z15	X16	Y16	Z16	X17	Y17	Z17	X18	Y18	Z18	X19	Y19	Z19	X20	Y20	Z20	X21	Y21	Z21	X22	Y22	Z22	X23	Y23	Z23	X24	Y24	Z24	X25	Y25	Z25	X26	Y26	Z26	X27	Y27	Z27	X28	Y28	Z28	X29	Y29	Z29	X30	Y30	Z30	X31	Y31	Z31	X32	Y32	Z32	X33	Y33	Z33	X34	Y34	Z34	X35	Y35	Z35	X36	Y36	Z36	X37	Y37	Z37	X38	Y38	Z38	X39	Y39	Z39	X40	Y40	Z40	X41	Y41	Z41	X42	Y42	Z42	X43	Y43	Z43	X44	Y44	Z44	X45	Y45	Z45	X46	Y46	Z46	X47	Y47	Z47	X48	Y48	Z48	X49	Y49	Z49	

256	2.550	-919.98621	-354.09253	1667.10217	-1051.28015	-355.78885	1656.33484	-921.18304	-221.12180	1612.33337	-1050.26135	-225.14256	1606.73853	-977.53027	-220.88280	1454.99255	-987.67395	-189.97008	1125.38086	-979.51959	-329.65115	1377.40161	-975.71631	-369.34738	1201.51257	-1058.68396	-148.35939	1284.59290	-817.39539	-278.33292	1408.37048	-738.49286	-290.81970	1208.06018	-722.00293	-300.02231	1097.01746	-699.12793	-348.54169	954.64056	-745.73706	-418.28268	848.38837	-700.64954	-365.55731	836.12683	-701.79932	-419.97891	763.71075	-1140.25293	-285.98764	1409.78320	-1231.02673	-249.92468	1212.47913	-1243.09521	-261.16299	1090.69495	-1257.01636	-293.51480	975.05328	-1217.77869	-373.69089	849.45453	-1260.77979	-322.77472	840.73364	-1258.02258	-372.02704	771.74200	-883.10345	-368.53452	963.89758	-1104.83838	-363.78970	972.02124	-908.53497	-210.72740	994.01947	-1077.21362	-212.63666	995.44324	-835.61133	-310.78427	648.06421	-863.16168	-317.84869	485.95392	-876.65100	-266.71716	233.54469	-923.88824	-242.11044	64.66825	-965.94489	-198.15961	52.77398	-938.19781	-386.82153	35.86776	-1157.63708	-354.41205	637.48132	-1134.59387	-382.41544	514.72302	-1139.73682	-250.71461	288.57394	-1104.54773	-163.87599	121.52351	-1057.34180	-121.97833	102.68085	-1122.15979	-298.11127	52.27730	-980.24335	-254.66524	1705.18274																											 
257	2.560	-919.97223	-359.62750	1667.22437	-1051.25916	-361.04123	1656.23462	-921.08014	-226.47417	1612.61194	-1050.52063	-229.90472	1606.98621	-977.32471	-225.59721	1455.28857	-986.91461	-194.73941	1125.58350	-979.17523	-334.71231	1377.49890	-975.09381	-374.26712	1201.57556	-1057.96021	-153.18980	1284.69324	-817.05328	-283.70081	1408.79260	-738.00702	-297.58554	1208.50769	-721.08978	-307.74606	1097.63843	-698.92926	-357.90567	955.67322	-746.02496	-428.82489	850.43756	-700.77533	-376.32584	837.41876	-702.23364	-431.76382	765.72998	-1139.87207	-290.70905	1409.71729	-1230.23145	-254.37256	1212.14050	-1242.22925	-265.78134	1090.50391	-1256.11890	-298.31683	974.91705	-1217.02063	-378.69580	849.45642	-1259.86548	-327.75348	840.69238	-1257.22144	-377.18835	771.80725	-882.42847	-372.87543	963.67719	-1104.00623	-368.31842	972.18732	-908.18854	-215.16678	994.08020	-1076.80273	-217.33670	995.71338	-835.84564	-313.87189	647.84998	-862.95941	-319.80762	485.62186	-876.51819	-267.42868	233.50247	-923.91901	-242.19031	64.72502	-966.23724	-198.13843	52.68354	-938.12329	-386.88577	35.88697	-1157.57007	-361.29678	638.47491	-1134.06348	-390.75879	516.12848	-1138.90796	-264.83951	286.62860	-1103.54578	-183.42303	116.90951	-1055.98767	-141.87912	97.19160	-1122.86096	-319.39789	51.57046	-980.27087	-260.14642	1705.29651																											 
258	2.570	-920.11694	-365.00372	1667.30298	-1051.35449	-366.35071	1656.16199	-921.05237	-231.83167	1612.86572	-1050.44702	-235.03874	1607.01477	-976.81683	-230.93924	1455.35388	-986.31787	-199.29265	1125.85217	-978.82391	-339.79846	1377.55969	-974.53949	-379.10501	1201.58557	-1057.21814	-157.96695	1284.82666	-816.68451	-289.17490	1409.03528	-737.63434	-304.32526	1208.91382	-720.90704	-314.97552	1097.90906	-698.85699	-367.11462	956.63770	-746.46411	-439.18561	852.44592	-700.95819	-387.10498	838.68738	-702.82489	-443.56635	767.78906	-1139.49768	-295.50085	1409.59851	-1229.31897	-259.02295	1211.96240	-1241.39282	-270.38031	1090.29016	-1255.30969	-302.93317	974.74182	-1216.35510	-383.71005	849.41956	-1258.96716	-332.62296	840.53815	-1256.55664	-382.21713	771.80072	-881.72540	-377.12720	963.43506	-1103.57556	-373.30127	972.54828	-907.81671	-219.52237	994.11157	-1076.37354	-221.96515	996.00977	-835.32581	-316.49570	647.56195	-862.80292	-321.94669	485.29999	-876.40125	-268.32526	233.47462	-923.94507	-242.28566	64.78821	-966.01074	-198.24451	53.07973	-938.26038	-386.78494	35.74214	-1157.59570	-368.07315	639.42407	-1133.49817	-399.08621	517.61639	-1138.15063	-279.01788	284.73605	-1102.66968	-203.15135	112.64152	-1054.77136	-162.96947	91.29392	-1123.10999	-340.63797	50.85170	-980.33606	-265.63278	1705.42847																											 
259	2.580	-920.25989	-370.40759	1667.36108	-1051.48853	-371.68054	1655.99939	-920.89172	-237.21379	1613.02673	-1050.35034	-240.36996	1606.98999	-976.30054	-236.21884	1455.45081	-985.64661	-203.98080	1126.05176	-978.51276	-344.78677	1377.56750	-974.03522	-383.88837	1201.51233	-1056.42688	-162.85757	1284.88123	-816.38629	-294.57895	1409.27673	-737.29370	-311.00204	1209.24658	-720.69257	-322.71161	1098.36133	-698.91028	-376.39990	957.62292	-747.09430	-449.40781	854.40881	-701.59430	-397.67065	839.85400	-703.48242	-455.08243	769.91644	-1139.15588	-300.32339	1409.43628	-1228.79150	-263.76053	1211.72119	-1240.60254	-274.94168	1090.06152	-1254.52539	-307.60867	974.50232	-1215.79761	-388.66592	849.32819	-1258.18359	-337.33423	840.36255	-1255.89246	-387.00119	771.62256	-881.02301	-381.28943	963.14307	-1102.65259	-377.79953	972.58990	-907.45038	-223.84583	994.09601	-1075.97717	-226.62474	996.23956	-835.14740	-319.34146	647.28223	-862.63538	-324.14590	484.98361	-876.28149	-269.33432	233.43469	-923.98810	-242.40910	64.84444	-966.05859	-198.32707	53.23370	-938.42450	-386.60742	35.63632	-1157.65808	-374.72104	640.27484	-1133.22290	-407.04422	518.71960	-1137.59497	-293.25046	282.94327	-1101.99475	-222.98285	108.62241	-1054.17456	-183.01546	86.61924	-1122.83203	-361.99338	49.88812	-980.40424	-271.00763	1705.48242																											 
260	2.590	-920.42157	-375.79575	1667.36938	-1051.68530	-376.91385	1655.79602	-920.85266	-242.51222	1613.13477	-1049.83728	-246.17480	1606.75928	-976.23871	-240.66521	1455.89221	-985.01459	-208.55640	1126.18079	-978.22809	-349.77344	1377.50256	-973.54871	-388.65247	1201.41028	-1055.87219	-167.60664	1284.97131	-816.09717	-299.92282	1409.45874	-737.03711	-317.58749	1209.53003	-720.34106	-330.40207	1098.75879	-699.08374	-385.37131	958.53375	-747.84521	-459.38696	856.22797	-701.84985	-408.18570	840.95068	-704.50299	-466.21655	771.61975	-1138.87402	-305.11337	1409.24036	-1228.12427	-268.18289	1211.46436	-1239.86658	-279.53146	1089.73608	-1253.80505	-312.20251	974.18707	-1215.29248	-393.53342	849.14685	-1257.35901	-342.12286	840.01379	-1255.53369	-391.70239	771.41583	-880.33472	-385.48199	962.81818	-1102.13330	-382.94385	972.88062	-907.09882	-228.14064	994.02002	-1075.63159	-231.26128	996.40637	-834.82507	-322.13586	646.99078	-862.51556	-326.35059	484.65973	-876.15381	-270.22311	233.34840	-924.03589	-242.56683	64.88598	-966.16370	-198.26953	53.47425	-938.19165	-386.97382	35.77245	-1157.78882	-381.36990	641.09326	-1132.93384	-415.36646	519.99329	-1137.28870	-307.68073	281.15518	-1101.36462	-242.47179	105.10128	-1052.84705	-204.03459	81.48041	-1122.21289	-383.18292	49.02593	-980.54449	-276.35001	1705.44568																											 
